<?xml version="1.0" encoding="UTF-8" standalone="no"?>
<!-- Created with Inkscape (http://www.inkscape.org/) -->

<svg
   xmlns:dc="http://purl.org/dc/elements/1.1/"
   xmlns:cc="http://creativecommons.org/ns#"
   xmlns:rdf="http://www.w3.org/1999/02/22-rdf-syntax-ns#"
   xmlns:svg="http://www.w3.org/2000/svg"
   xmlns="http://www.w3.org/2000/svg"
   xmlns:sodipodi="http://sodipodi.sourceforge.net/DTD/sodipodi-0.dtd"
   xmlns:inkscape="http://www.inkscape.org/namespaces/inkscape"
   width="210mm"
   height="297mm"
   viewBox="0 0 210 297"
   version="1.1"
   id="svg27"
   inkscape:version="0.92.5 (2060ec1f9f, 2020-04-08)"
   sodipodi:docname="qr_wiki_12cm.svg">
  <defs
     id="defs21" />
  <sodipodi:namedview
     id="base"
     pagecolor="#ffffff"
     bordercolor="#666666"
     borderopacity="1.0"
     inkscape:pageopacity="0.0"
     inkscape:pageshadow="2"
     inkscape:zoom="1.979899"
     inkscape:cx="136.66969"
     inkscape:cy="918.75154"
     inkscape:document-units="mm"
     inkscape:current-layer="layer1"
     showgrid="false"
     inkscape:window-width="3440"
     inkscape:window-height="1359"
     inkscape:window-x="0"
     inkscape:window-y="0"
     inkscape:window-maximized="1" />
  <metadata
     id="metadata24">
    <rdf:RDF>
      <cc:Work
         rdf:about="">
        <dc:format>image/svg+xml</dc:format>
        <dc:type
           rdf:resource="http://purl.org/dc/dcmitype/StillImage" />
        <dc:title />
      </cc:Work>
    </rdf:RDF>
  </metadata>
  <g
     inkscape:label="Layer 1"
     inkscape:groupmode="layer"
     id="layer1">
    <path
       inkscape:connector-curvature="0"
       d="m 45,152.51708 v -14.48275 h 28.965521 v 28.96551 H 45 Z m 24.827584,0 V 142.17225 H 49.137937 v 20.68967 h 20.689647 z m -16.55171,0 v -6.20689 h 12.413792 v 12.41379 H 53.275874 Z m 28.965501,12.4138 v -2.06896 h -4.137917 v -8.27588 h 4.137917 v -12.41379 h 4.137937 v -4.13792 h -8.275854 v -4.13794 H 61.551729 v -4.13793 h 4.137937 v -4.13792 h -8.275874 v 8.27585 h -4.137918 v -4.13793 H 45 v -4.13792 h 8.275874 v -8.27588 h -4.137937 v 4.13794 H 45 v -8.27586 h 8.275874 v 4.13792 h 4.137918 v 4.13794 h 4.137937 v -4.13794 h 4.137937 v 4.13794 h 8.275855 v -4.13794 h -4.137937 v -4.13792 H 57.413792 v -4.13793 h 12.413792 v -4.13794 H 57.413792 v -4.13792 h -4.137918 v 4.13792 H 45 V 92.517125 h 4.137937 v 4.137906 h 24.827584 v -4.137906 h -4.137937 v -4.137896 h -8.275855 v 4.137896 h -4.137937 v -4.137896 h -8.275855 v -8.275835 h 8.275855 v 8.275835 h 4.137937 v -4.137916 h 8.275855 v -4.137919 h 4.137937 v 4.137919 h -4.137937 v 4.137916 h 4.137937 v 4.137896 h 4.137937 v -8.275812 h 4.137917 V 80.103394 H 78.103458 V 67.689656 h 8.275854 v 4.137926 h 4.137937 v 4.137916 h -4.137937 v 4.137896 h 4.137937 v 24.827476 h -8.275874 v -4.13792 h -4.137917 v 4.13792 h -4.137937 v 4.13794 h -4.137937 v 4.13793 h 4.137937 v 4.13792 h 4.137937 v 4.13794 h 8.275854 v -4.13794 h -4.137937 v -4.13792 h -4.137917 v -4.13793 h 8.275854 v 8.27585 h 4.137937 v -8.27585 h 4.137918 v 8.27585 H 98.7931 v -12.41379 h 4.13794 v -4.13792 h 4.13792 v 4.13792 h -4.13792 v 4.13794 h 4.13792 v 4.13793 h 12.41378 v -4.13793 h -4.13792 v -4.13794 h -4.13793 v -8.275839 h -4.13793 v -4.137906 h 4.13793 v -4.137896 h 4.13793 v -4.137916 h -4.13793 v -4.137919 h -4.13793 v 8.275835 h -4.13792 V 84.241313 H 98.7931 v 4.137916 H 94.655167 V 84.241313 H 98.7931 V 80.103394 H 94.655167 V 67.689656 h -4.137918 v -4.137918 h 4.137918 v 4.137918 H 98.7931 V 51.137945 h 4.13794 v 8.275856 h 8.27585 v -4.137938 h -4.13793 v -8.275856 h 8.27586 v 4.137938 h -4.13793 v 4.137918 h 8.27585 v -4.137918 h 4.13794 v -4.137938 h 8.27585 v 12.413794 h -8.27585 v -4.137938 h -4.13794 v 8.275875 h 4.13794 v 12.41376 h 4.13793 v -4.137916 h 4.13792 v 20.689543 h 8.27588 v -4.137896 h -4.13794 v -8.275835 h 8.27585 v 12.413731 h 8.27588 v -4.137896 h -4.13794 v -8.275835 h 4.13794 v 8.275835 h 4.13792 v -4.137916 h 8.27587 v 8.275812 h -4.13794 v -4.137896 h -4.13793 v 4.137896 h -4.13792 v 12.413745 h 4.13792 v 4.13794 h -4.13792 v 4.13793 h -8.27588 v 4.13792 h -4.13791 v 4.13794 h -8.27588 v -4.13794 h -4.13792 v -4.13792 h -4.13793 v 8.27586 h 4.13793 v 4.13794 h 12.4138 v 4.13792 h 8.27585 v -4.13792 h -4.13794 v -4.13794 h 4.13794 v -4.13794 h 4.13794 v 4.13794 h 4.13792 v 4.13794 h 4.13793 v -8.27588 h -4.13793 v -4.13792 h 8.27587 v 12.4138 h -4.13794 v 8.27585 h 4.13794 v 8.27586 h -4.13794 v 12.41379 h 4.13794 v 4.13794 H 152.5862 v 8.27586 h -12.41379 v -4.13792 h 8.27585 v -4.13794 h -8.27585 v -8.27586 h -4.13794 v 8.27586 h -4.13794 v 4.13794 h 4.13794 v 4.13792 h -8.27586 v -12.4138 h -4.13793 v 8.27588 h -4.13794 v -4.13794 h -4.13792 v -16.55173 h 4.13792 v 12.41379 h 4.13794 v -12.41379 h 4.13793 v -8.27586 h -4.13793 v -4.13793 h -4.13794 v -4.13792 h 4.13794 v -4.13794 h -4.13794 v -4.13794 h -4.13792 v 16.55173 h 4.13792 v 4.13794 h -8.27585 v 8.27586 h -4.13793 v 8.27585 h 4.13793 v 4.13794 h -4.13793 v 4.13794 h 8.27586 v 4.13792 h -8.27586 v -4.13792 h -4.13792 v -4.13794 H 98.7931 v 8.27586 H 82.241375 Z m 12.413792,-6.2069 v -4.13794 H 98.7931 v -12.41379 h -8.275851 v 4.13794 h 4.137918 v 4.13793 h -8.275855 v 4.13792 h -4.137937 v 4.13794 h 4.137937 v 4.13794 h 8.275855 z m 57.931033,-4.13794 v -4.13792 h 4.13792 v -8.27587 h 4.13793 v -4.13792 h -4.13793 v -12.41379 h -4.13792 v 12.41379 h 4.13792 v 4.13792 h -4.13792 v 4.13794 h -4.13794 v 12.41379 h 4.13794 z m -20.68967,-2.06896 v -2.06896 h -4.13792 v 4.13792 h 4.13792 z m -24.82757,-8.27585 v -2.06898 h -4.13792 v 4.13794 h 4.13792 z m 37.24136,-4.13794 v -6.2069 h -12.41379 v 12.4138 h 12.41379 z m -8.27585,0 v -2.06896 h 4.13794 v 4.13792 h -4.13794 z m -33.10343,-4.13794 v -2.06896 h 8.27585 v -4.13793 h -8.27585 v -4.13792 H 98.7931 v 4.13792 h 4.13794 v 4.13793 h -8.275873 v -4.13793 h -4.137918 v 4.13793 h -4.137937 v -4.13793 h -4.137937 v -4.13792 h -4.137917 v -4.13794 h -4.137937 v 4.13794 h -4.137937 v 4.13792 h 4.137937 v -4.13792 h 4.137937 v 4.13792 h 4.137917 v 4.13793 h 4.137937 v 4.13794 H 102.93104 Z M 90.517249,123.55156 v -2.06896 h -4.137937 v 4.13794 h 4.137937 z m 20.689641,-2.06896 v -4.13794 h -8.27585 v 4.13794 h 4.13792 v 4.13794 h 4.13793 z m 24.82758,-6.2069 v -2.06896 h -4.13794 v 4.13792 h 4.13794 z m 8.27585,-4.13794 v -2.06895 h 4.13794 V 96.655031 h -4.13794 v 4.137919 h -4.13791 v 4.13792 h -4.13794 v -4.13792 h -8.27586 v -4.137919 h -4.13793 v -4.137906 h 4.13793 V 80.103394 h -4.13793 v -4.137896 h -4.13794 v -4.137916 h -4.13792 v 4.137916 h -4.13793 v -12.41376 h 4.13793 v 4.137918 h 4.13792 v -4.137918 h -4.13792 v -4.137937 h -4.13793 v 4.137937 h -4.13793 v 12.41376 h 4.13793 v 4.137896 h 4.13793 v -4.137896 h 4.13792 v 12.413731 h -4.13792 v 4.137896 h -4.13793 v 4.137906 h 4.13793 v 8.275839 h 4.13792 v -4.13792 h 8.27587 v 4.13792 h 4.13792 v 4.13794 h 8.27588 v 4.13793 h 4.13791 z m -4.13791,-4.13791 v -2.06898 h 4.13791 v 4.13794 h -4.13791 z m -66.206889,-4.13794 v -2.06896 h 4.137937 v -4.137919 h -4.137937 v 4.137919 h -4.137937 v 4.13792 h 4.137937 z m 12.413791,-8.275817 v -2.068968 h -4.137937 v 4.137906 h 4.137937 z m 0,-20.689563 v -2.068948 h -4.137937 v 4.137916 h 4.137937 z M 102.93104,71.827582 V 67.689656 H 98.7931 v 8.275842 h 4.13794 z m 24.82757,-18.620678 v -2.068959 h -4.13793 v 4.137918 h 4.13793 z m 33.10344,111.723976 v -2.06896 h 4.13794 v 4.13792 h -4.13794 z m 0,-60.00001 v -4.13792 h -4.13793 v -4.137919 h 4.13793 v 4.137919 h 4.13794 v 8.27586 h -4.13794 z M 45,61.48276 V 47.000007 H 73.965521 V 75.965498 H 45 Z m 24.827584,0 V 51.137945 H 49.137937 v 20.689637 h 20.689647 z m -16.55171,0 V 55.275863 H 65.689666 V 67.689656 H 53.275874 Z m 82.758596,0 V 47.000007 h 28.96552 v 28.965491 h -28.96552 z m 24.82758,0 V 51.137945 h -20.68964 v 20.689637 h 20.68964 z m -16.55173,0 v -6.206897 h 12.4138 v 12.413793 h -12.4138 z m -66.206862,0 v -2.068959 h 4.137917 v 4.137937 h -4.137917 z m 8.275854,-4.137918 v -2.068979 h -4.137937 v -8.275856 h 4.137937 v 4.137938 h 4.137937 v -4.137938 h 4.137918 v 4.137938 h -4.137918 v 8.275856 h -4.137937 z"
       id="path2"
       style="stroke-width:0.51724136" />
    <rect
       style="fill:none;fill-opacity:1;stroke:#000000;stroke-width:0.01000098;stroke-miterlimit:4;stroke-dasharray:none;stroke-opacity:1"
       id="rect842"
       width="194.99001"
       height="279.98999"
       x="15.005"
       y="17.005001" />
    <text
       xml:space="preserve"
       style="font-style:normal;font-weight:normal;font-size:10.58333302px;line-height:1.25;font-family:sans-serif;letter-spacing:0px;word-spacing:0px;fill:#000000;fill-opacity:1;stroke:none;stroke-width:0.26458332"
       x="53.619625"
       y="218.65257"
       id="text55"><tspan
         sodipodi:role="line"
         x="53.619625"
         y="218.65257"
         style="font-size:6.3499999px;stroke-width:0.26458332"
         id="tspan61">Marker ID: wikipedia.org</tspan><tspan
         sodipodi:role="line"
         x="53.619625"
         y="231.88174"
         style="font-size:6.3499999px;stroke-width:0.26458332"
         id="tspan67">Marker size: 12cm x 12cm</tspan><tspan
         sodipodi:role="line"
         x="53.619625"
         y="245.1109"
         style="font-size:6.3499999px;stroke-width:0.26458332"
         id="tspan65">Border offset: 3cm x 3cm</tspan></text>
  </g>
</svg>
